<svg width="410" height="410" viewBox="0 0 410 410" fill="none" xmlns="http://www.w3.org/2000/svg">
<rect width="410" height="410" fill="white"/>
<rect x="196.5" y="146.5" width="68" height="95" stroke="#101010" stroke-width="5"/>
<rect x="196.5" y="287.5" width="68" height="93" stroke="#101010" stroke-width="5" stroke-dasharray="10 10"/>
<path d="M45.3333 194C45.3333 186.636 39.3638 180.667 32 180.667C24.6362 180.667 18.6667 186.636 18.6667 194C18.6667 201.364 24.6362 207.333 32 207.333C39.3638 207.333 45.3333 201.364 45.3333 194ZM150 191.5L32 191.5V196.5L150 196.5V191.5Z" fill="black"/>
<path d="M65.4439 39.338C65.4439 38.246 65.1739 37.406 64.6339 36.818C64.0939 36.23 63.3739 35.936 62.4739 35.936C61.9699 35.936 61.5739 35.954 61.2859 35.99C61.0099 36.026 60.7879 36.068 60.6199 36.116V42.02C60.8239 42.188 61.1179 42.35 61.5019 42.506C61.8859 42.662 62.3059 42.74 62.7619 42.74C63.2419 42.74 63.6499 42.656 63.9859 42.488C64.3339 42.308 64.6159 42.068 64.8319 41.768C65.0479 41.456 65.2039 41.096 65.2999 40.688C65.3959 40.268 65.4439 39.818 65.4439 39.338ZM67.1899 39.338C67.1899 40.046 67.0939 40.7 66.9019 41.3C66.7219 41.9 66.4519 42.416 66.0919 42.848C65.7319 43.28 65.2879 43.616 64.7599 43.856C64.2439 44.096 63.6499 44.216 62.9779 44.216C62.4379 44.216 61.9579 44.144 61.5379 44C61.1299 43.856 60.8239 43.718 60.6199 43.586V47.33H58.9459V34.928C59.3419 34.832 59.8339 34.73 60.4219 34.622C61.0219 34.502 61.7119 34.442 62.4919 34.442C63.2119 34.442 63.8599 34.556 64.4359 34.784C65.0119 35.012 65.5039 35.336 65.9119 35.756C66.3199 36.176 66.6319 36.692 66.8479 37.304C67.0759 37.904 67.1899 38.582 67.1899 39.338ZM69.0235 39.338C69.0235 38.51 69.1435 37.79 69.3835 37.178C69.6235 36.554 69.9415 36.038 70.3375 35.63C70.7335 35.222 71.1895 34.916 71.7055 34.712C72.2215 34.508 72.7495 34.406 73.2895 34.406C74.5495 34.406 75.5155 34.802 76.1875 35.594C76.8595 36.374 77.1955 37.568 77.1955 39.176C77.1955 39.248 77.1955 39.344 77.1955 39.464C77.1955 39.572 77.1895 39.674 77.1775 39.77H70.7695C70.8415 40.742 71.1235 41.48 71.6155 41.984C72.1075 42.488 72.8755 42.74 73.9195 42.74C74.5075 42.74 74.9995 42.692 75.3955 42.596C75.8035 42.488 76.1095 42.386 76.3135 42.29L76.5475 43.694C76.3435 43.802 75.9835 43.916 75.4675 44.036C74.9635 44.156 74.3875 44.216 73.7395 44.216C72.9235 44.216 72.2155 44.096 71.6155 43.856C71.0275 43.604 70.5415 43.262 70.1575 42.83C69.7735 42.398 69.4855 41.888 69.2935 41.3C69.1135 40.7 69.0235 40.046 69.0235 39.338ZM75.4495 38.42C75.4615 37.664 75.2695 37.046 74.8735 36.566C74.4895 36.074 73.9555 35.828 73.2715 35.828C72.8875 35.828 72.5455 35.906 72.2455 36.062C71.9575 36.206 71.7115 36.398 71.5075 36.638C71.3035 36.878 71.1415 37.154 71.0215 37.466C70.9135 37.778 70.8415 38.096 70.8055 38.42H75.4495ZM83.0562 34.442C83.2002 34.442 83.3622 34.454 83.5422 34.478C83.7342 34.49 83.9202 34.514 84.1002 34.55C84.2802 34.574 84.4422 34.604 84.5862 34.64C84.7422 34.664 84.8562 34.688 84.9282 34.712L84.6402 36.17C84.5082 36.122 84.2862 36.068 83.9742 36.008C83.6742 35.936 83.2842 35.9 82.8042 35.9C82.4922 35.9 82.1802 35.936 81.8682 36.008C81.5682 36.068 81.3702 36.11 81.2742 36.134V44H79.6002V35.036C79.9962 34.892 80.4882 34.76 81.0762 34.64C81.6642 34.508 82.3242 34.442 83.0562 34.442ZM88.7215 42.794C89.4055 42.794 89.9095 42.704 90.2335 42.524C90.5695 42.344 90.7375 42.056 90.7375 41.66C90.7375 41.252 90.5755 40.928 90.2515 40.688C89.9275 40.448 89.3935 40.178 88.6495 39.878C88.2895 39.734 87.9415 39.59 87.6055 39.446C87.2815 39.29 86.9995 39.11 86.7595 38.906C86.5195 38.702 86.3275 38.456 86.1835 38.168C86.0395 37.88 85.9675 37.526 85.9675 37.106C85.9675 36.278 86.2735 35.624 86.8855 35.144C87.4975 34.652 88.3315 34.406 89.3875 34.406C89.6515 34.406 89.9155 34.424 90.1795 34.46C90.4435 34.484 90.6895 34.52 90.9175 34.568C91.1455 34.604 91.3435 34.646 91.5115 34.694C91.6915 34.742 91.8295 34.784 91.9255 34.82L91.6195 36.26C91.4395 36.164 91.1575 36.068 90.7735 35.972C90.3895 35.864 89.9275 35.81 89.3875 35.81C88.9195 35.81 88.5115 35.906 88.1635 36.098C87.8155 36.278 87.6415 36.566 87.6415 36.962C87.6415 37.166 87.6775 37.346 87.7495 37.502C87.8335 37.658 87.9535 37.802 88.1095 37.934C88.2775 38.054 88.4815 38.168 88.7215 38.276C88.9615 38.384 89.2495 38.498 89.5855 38.618C90.0295 38.786 90.4255 38.954 90.7735 39.122C91.1215 39.278 91.4155 39.464 91.6555 39.68C91.9075 39.896 92.0995 40.16 92.2315 40.472C92.3635 40.772 92.4295 41.144 92.4295 41.588C92.4295 42.452 92.1055 43.106 91.4575 43.55C90.8215 43.994 89.9095 44.216 88.7215 44.216C87.8935 44.216 87.2455 44.144 86.7775 44C86.3095 43.868 85.9915 43.766 85.8235 43.694L86.1295 42.254C86.3215 42.326 86.6275 42.434 87.0475 42.578C87.4675 42.722 88.0255 42.794 88.7215 42.794ZM102.839 39.32C102.839 40.064 102.731 40.736 102.515 41.336C102.299 41.936 101.993 42.452 101.597 42.884C101.213 43.316 100.751 43.652 100.211 43.892C99.6707 44.12 99.0827 44.234 98.4467 44.234C97.8107 44.234 97.2227 44.12 96.6827 43.892C96.1427 43.652 95.6747 43.316 95.2787 42.884C94.8947 42.452 94.5947 41.936 94.3787 41.336C94.1627 40.736 94.0547 40.064 94.0547 39.32C94.0547 38.588 94.1627 37.922 94.3787 37.322C94.5947 36.71 94.8947 36.188 95.2787 35.756C95.6747 35.324 96.1427 34.994 96.6827 34.766C97.2227 34.526 97.8107 34.406 98.4467 34.406C99.0827 34.406 99.6707 34.526 100.211 34.766C100.751 34.994 101.213 35.324 101.597 35.756C101.993 36.188 102.299 36.71 102.515 37.322C102.731 37.922 102.839 38.588 102.839 39.32ZM101.093 39.32C101.093 38.264 100.853 37.43 100.373 36.818C99.9047 36.194 99.2627 35.882 98.4467 35.882C97.6307 35.882 96.9827 36.194 96.5027 36.818C96.0347 37.43 95.8007 38.264 95.8007 39.32C95.8007 40.376 96.0347 41.216 96.5027 41.84C96.9827 42.452 97.6307 42.758 98.4467 42.758C99.2627 42.758 99.9047 42.452 100.373 41.84C100.853 41.216 101.093 40.376 101.093 39.32ZM105.194 34.91C105.578 34.814 106.088 34.712 106.724 34.604C107.36 34.496 108.092 34.442 108.92 34.442C109.664 34.442 110.282 34.55 110.774 34.766C111.266 34.97 111.656 35.264 111.944 35.648C112.244 36.02 112.454 36.47 112.574 36.998C112.694 37.526 112.754 38.108 112.754 38.744V44H111.08V39.104C111.08 38.528 111.038 38.036 110.954 37.628C110.882 37.22 110.756 36.89 110.576 36.638C110.396 36.386 110.156 36.206 109.856 36.098C109.556 35.978 109.184 35.918 108.74 35.918C108.56 35.918 108.374 35.924 108.182 35.936C107.99 35.948 107.804 35.966 107.624 35.99C107.456 36.002 107.3 36.02 107.156 36.044C107.024 36.068 106.928 36.086 106.868 36.098V44H105.194V34.91ZM118.698 42.794C119.094 42.794 119.442 42.788 119.742 42.776C120.054 42.752 120.312 42.716 120.516 42.668V39.878C120.396 39.818 120.198 39.77 119.922 39.734C119.658 39.686 119.334 39.662 118.95 39.662C118.698 39.662 118.428 39.68 118.14 39.716C117.864 39.752 117.606 39.83 117.366 39.95C117.138 40.058 116.946 40.214 116.79 40.418C116.634 40.61 116.556 40.868 116.556 41.192C116.556 41.792 116.748 42.212 117.132 42.452C117.516 42.68 118.038 42.794 118.698 42.794ZM118.554 34.406C119.226 34.406 119.79 34.496 120.246 34.676C120.714 34.844 121.086 35.09 121.362 35.414C121.65 35.726 121.854 36.104 121.974 36.548C122.094 36.98 122.154 37.46 122.154 37.988V43.838C122.01 43.862 121.806 43.898 121.542 43.946C121.29 43.982 121.002 44.018 120.678 44.054C120.354 44.09 120 44.12 119.616 44.144C119.244 44.18 118.872 44.198 118.5 44.198C117.972 44.198 117.486 44.144 117.042 44.036C116.598 43.928 116.214 43.76 115.89 43.532C115.566 43.292 115.314 42.98 115.134 42.596C114.954 42.212 114.864 41.75 114.864 41.21C114.864 40.694 114.966 40.25 115.17 39.878C115.386 39.506 115.674 39.206 116.034 38.978C116.394 38.75 116.814 38.582 117.294 38.474C117.774 38.366 118.278 38.312 118.806 38.312C118.974 38.312 119.148 38.324 119.328 38.348C119.508 38.36 119.676 38.384 119.832 38.42C120 38.444 120.144 38.468 120.264 38.492C120.384 38.516 120.468 38.534 120.516 38.546V38.078C120.516 37.802 120.486 37.532 120.426 37.268C120.366 36.992 120.258 36.752 120.102 36.548C119.946 36.332 119.73 36.164 119.454 36.044C119.19 35.912 118.842 35.846 118.41 35.846C117.858 35.846 117.372 35.888 116.952 35.972C116.544 36.044 116.238 36.122 116.034 36.206L115.836 34.82C116.052 34.724 116.412 34.634 116.916 34.55C117.42 34.454 117.966 34.406 118.554 34.406Z" fill="black"/>
<path d="M70.165 148.64C69.697 150.392 69.145 152.072 68.509 153.68C67.885 155.288 67.279 156.728 66.691 158H65.179C64.591 156.728 63.979 155.288 63.343 153.68C62.719 152.072 62.173 150.392 61.705 148.64H63.505C63.649 149.228 63.817 149.858 64.009 150.53C64.213 151.19 64.423 151.85 64.639 152.51C64.867 153.158 65.095 153.788 65.323 154.4C65.551 155.012 65.767 155.558 65.971 156.038C66.175 155.558 66.391 155.012 66.619 154.4C66.847 153.788 67.069 153.158 67.285 152.51C67.513 151.85 67.723 151.19 67.915 150.53C68.119 149.858 68.293 149.228 68.437 148.64H70.165ZM73.5661 158H71.8921V148.64H73.5661V158ZM72.7201 146.948C72.4201 146.948 72.1621 146.852 71.9461 146.66C71.7421 146.456 71.6401 146.186 71.6401 145.85C71.6401 145.514 71.7421 145.25 71.9461 145.058C72.1621 144.854 72.4201 144.752 72.7201 144.752C73.0201 144.752 73.2721 144.854 73.4761 145.058C73.6921 145.25 73.8001 145.514 73.8001 145.85C73.8001 146.186 73.6921 146.456 73.4761 146.66C73.2721 146.852 73.0201 146.948 72.7201 146.948ZM76.4449 148.91C76.8289 148.814 77.3389 148.712 77.9749 148.604C78.6109 148.496 79.3429 148.442 80.1709 148.442C80.9149 148.442 81.5329 148.55 82.0249 148.766C82.5169 148.97 82.9069 149.264 83.1949 149.648C83.4949 150.02 83.7049 150.47 83.8249 150.998C83.9449 151.526 84.0049 152.108 84.0049 152.744V158H82.3309V153.104C82.3309 152.528 82.2889 152.036 82.2049 151.628C82.1329 151.22 82.0069 150.89 81.8269 150.638C81.6469 150.386 81.4069 150.206 81.1069 150.098C80.8069 149.978 80.4349 149.918 79.9909 149.918C79.8109 149.918 79.6249 149.924 79.4329 149.936C79.2409 149.948 79.0549 149.966 78.8749 149.99C78.7069 150.002 78.5509 150.02 78.4069 150.044C78.2749 150.068 78.1789 150.086 78.1189 150.098V158H76.4449V148.91ZM90.8488 158.216C90.0928 158.216 89.4268 158.096 88.8508 157.856C88.2868 157.616 87.8068 157.28 87.4108 156.848C87.0268 156.416 86.7388 155.906 86.5468 155.318C86.3548 154.718 86.2588 154.058 86.2588 153.338C86.2588 152.618 86.3608 151.958 86.5648 151.358C86.7808 150.758 87.0808 150.242 87.4648 149.81C87.8488 149.366 88.3168 149.024 88.8688 148.784C89.4328 148.532 90.0568 148.406 90.7408 148.406C91.1608 148.406 91.5808 148.442 92.0008 148.514C92.4208 148.586 92.8228 148.7 93.2068 148.856L92.8288 150.278C92.5768 150.158 92.2828 150.062 91.9468 149.99C91.6228 149.918 91.2748 149.882 90.9028 149.882C89.9668 149.882 89.2468 150.176 88.7428 150.764C88.2508 151.352 88.0048 152.21 88.0048 153.338C88.0048 153.842 88.0588 154.304 88.1668 154.724C88.2868 155.144 88.4668 155.504 88.7068 155.804C88.9588 156.104 89.2768 156.338 89.6608 156.506C90.0448 156.662 90.5128 156.74 91.0648 156.74C91.5088 156.74 91.9108 156.698 92.2708 156.614C92.6308 156.53 92.9128 156.44 93.1168 156.344L93.3508 157.748C93.2548 157.808 93.1168 157.868 92.9368 157.928C92.7568 157.976 92.5528 158.018 92.3248 158.054C92.0968 158.102 91.8508 158.138 91.5868 158.162C91.3348 158.198 91.0888 158.216 90.8488 158.216ZM102.6 157.73C102.216 157.826 101.706 157.928 101.07 158.036C100.446 158.144 99.72 158.198 98.892 158.198C98.172 158.198 97.566 158.096 97.074 157.892C96.582 157.676 96.186 157.376 95.886 156.992C95.586 156.608 95.37 156.158 95.238 155.642C95.106 155.114 95.04 154.532 95.04 153.896V148.64H96.714V153.536C96.714 154.676 96.894 155.492 97.254 155.984C97.614 156.476 98.22 156.722 99.072 156.722C99.252 156.722 99.438 156.716 99.63 156.704C99.822 156.692 100.002 156.68 100.17 156.668C100.338 156.644 100.488 156.626 100.62 156.614C100.764 156.59 100.866 156.566 100.926 156.542V148.64H102.6V157.73ZM108.292 158.18C107.26 158.156 106.528 157.934 106.096 157.514C105.664 157.094 105.448 156.44 105.448 155.552V144.32L107.122 144.032V155.282C107.122 155.558 107.146 155.786 107.194 155.966C107.242 156.146 107.32 156.29 107.428 156.398C107.536 156.506 107.68 156.59 107.86 156.65C108.04 156.698 108.262 156.74 108.526 156.776L108.292 158.18ZM118.668 153.32C118.668 154.064 118.56 154.736 118.344 155.336C118.128 155.936 117.822 156.452 117.426 156.884C117.042 157.316 116.58 157.652 116.04 157.892C115.5 158.12 114.912 158.234 114.276 158.234C113.64 158.234 113.052 158.12 112.512 157.892C111.972 157.652 111.504 157.316 111.108 156.884C110.724 156.452 110.424 155.936 110.208 155.336C109.992 154.736 109.884 154.064 109.884 153.32C109.884 152.588 109.992 151.922 110.208 151.322C110.424 150.71 110.724 150.188 111.108 149.756C111.504 149.324 111.972 148.994 112.512 148.766C113.052 148.526 113.64 148.406 114.276 148.406C114.912 148.406 115.5 148.526 116.04 148.766C116.58 148.994 117.042 149.324 117.426 149.756C117.822 150.188 118.128 150.71 118.344 151.322C118.56 151.922 118.668 152.588 118.668 153.32ZM116.922 153.32C116.922 152.264 116.682 151.43 116.202 150.818C115.734 150.194 115.092 149.882 114.276 149.882C113.46 149.882 112.812 150.194 112.332 150.818C111.864 151.43 111.63 152.264 111.63 153.32C111.63 154.376 111.864 155.216 112.332 155.84C112.812 156.452 113.46 156.758 114.276 156.758C115.092 156.758 115.734 156.452 116.202 155.84C116.682 155.216 116.922 154.376 116.922 153.32Z" fill="black"/>
<path d="M50.3767 315.62C50.1727 315.452 49.8787 315.29 49.4947 315.134C49.1107 314.978 48.6907 314.9 48.2347 314.9C47.7547 314.9 47.3407 314.99 46.9927 315.17C46.6567 315.338 46.3807 315.578 46.1647 315.89C45.9487 316.19 45.7927 316.55 45.6967 316.97C45.6007 317.39 45.5527 317.84 45.5527 318.32C45.5527 319.412 45.8227 320.258 46.3627 320.858C46.9027 321.446 47.6227 321.74 48.5227 321.74C48.9787 321.74 49.3567 321.722 49.6567 321.686C49.9687 321.638 50.2087 321.59 50.3767 321.542V315.62ZM50.3767 309.32L52.0507 309.032V322.73C51.6667 322.838 51.1747 322.946 50.5747 323.054C49.9747 323.162 49.2847 323.216 48.5047 323.216C47.7847 323.216 47.1367 323.102 46.5607 322.874C45.9847 322.646 45.4927 322.322 45.0847 321.902C44.6767 321.482 44.3587 320.972 44.1307 320.372C43.9147 319.76 43.8067 319.076 43.8067 318.32C43.8067 317.6 43.8967 316.94 44.0767 316.34C44.2687 315.74 44.5447 315.224 44.9047 314.792C45.2647 314.36 45.7027 314.024 46.2187 313.784C46.7467 313.544 47.3467 313.424 48.0187 313.424C48.5587 313.424 49.0327 313.496 49.4407 313.64C49.8607 313.784 50.1727 313.922 50.3767 314.054V309.32ZM56.6023 323H54.9283V313.64H56.6023V323ZM55.7563 311.948C55.4563 311.948 55.1983 311.852 54.9823 311.66C54.7783 311.456 54.6763 311.186 54.6763 310.85C54.6763 310.514 54.7783 310.25 54.9823 310.058C55.1983 309.854 55.4563 309.752 55.7563 309.752C56.0563 309.752 56.3083 309.854 56.5123 310.058C56.7283 310.25 56.8363 310.514 56.8363 310.85C56.8363 311.186 56.7283 311.456 56.5123 311.66C56.3083 311.852 56.0563 311.948 55.7563 311.948ZM61.659 321.794C62.343 321.794 62.847 321.704 63.171 321.524C63.507 321.344 63.675 321.056 63.675 320.66C63.675 320.252 63.513 319.928 63.189 319.688C62.865 319.448 62.331 319.178 61.587 318.878C61.227 318.734 60.879 318.59 60.543 318.446C60.219 318.29 59.937 318.11 59.697 317.906C59.457 317.702 59.265 317.456 59.121 317.168C58.977 316.88 58.905 316.526 58.905 316.106C58.905 315.278 59.211 314.624 59.823 314.144C60.435 313.652 61.269 313.406 62.325 313.406C62.589 313.406 62.853 313.424 63.117 313.46C63.381 313.484 63.627 313.52 63.855 313.568C64.083 313.604 64.281 313.646 64.449 313.694C64.629 313.742 64.767 313.784 64.863 313.82L64.557 315.26C64.377 315.164 64.095 315.068 63.711 314.972C63.327 314.864 62.865 314.81 62.325 314.81C61.857 314.81 61.449 314.906 61.101 315.098C60.753 315.278 60.579 315.566 60.579 315.962C60.579 316.166 60.615 316.346 60.687 316.502C60.771 316.658 60.891 316.802 61.047 316.934C61.215 317.054 61.419 317.168 61.659 317.276C61.899 317.384 62.187 317.498 62.523 317.618C62.967 317.786 63.363 317.954 63.711 318.122C64.059 318.278 64.353 318.464 64.593 318.68C64.845 318.896 65.037 319.16 65.169 319.472C65.301 319.772 65.367 320.144 65.367 320.588C65.367 321.452 65.043 322.106 64.395 322.55C63.759 322.994 62.847 323.216 61.659 323.216C60.831 323.216 60.183 323.144 59.715 323C59.247 322.868 58.929 322.766 58.761 322.694L59.067 321.254C59.259 321.326 59.565 321.434 59.985 321.578C60.405 321.722 60.963 321.794 61.659 321.794ZM74.0122 318.338C74.0122 317.246 73.7422 316.406 73.2022 315.818C72.6622 315.23 71.9422 314.936 71.0422 314.936C70.5382 314.936 70.1422 314.954 69.8542 314.99C69.5782 315.026 69.3562 315.068 69.1882 315.116V321.02C69.3922 321.188 69.6862 321.35 70.0702 321.506C70.4542 321.662 70.8742 321.74 71.3302 321.74C71.8102 321.74 72.2182 321.656 72.5542 321.488C72.9022 321.308 73.1842 321.068 73.4002 320.768C73.6162 320.456 73.7722 320.096 73.8682 319.688C73.9642 319.268 74.0122 318.818 74.0122 318.338ZM75.7582 318.338C75.7582 319.046 75.6622 319.7 75.4702 320.3C75.2902 320.9 75.0202 321.416 74.6602 321.848C74.3002 322.28 73.8562 322.616 73.3282 322.856C72.8122 323.096 72.2182 323.216 71.5462 323.216C71.0062 323.216 70.5262 323.144 70.1062 323C69.6982 322.856 69.3922 322.718 69.1882 322.586V326.33H67.5142V313.928C67.9102 313.832 68.4022 313.73 68.9902 313.622C69.5902 313.502 70.2802 313.442 71.0602 313.442C71.7802 313.442 72.4282 313.556 73.0042 313.784C73.5802 314.012 74.0722 314.336 74.4802 314.756C74.8882 315.176 75.2002 315.692 75.4162 316.304C75.6442 316.904 75.7582 317.582 75.7582 318.338ZM86.3758 318.32C86.3758 319.064 86.2678 319.736 86.0518 320.336C85.8358 320.936 85.5298 321.452 85.1338 321.884C84.7498 322.316 84.2878 322.652 83.7478 322.892C83.2078 323.12 82.6198 323.234 81.9838 323.234C81.3478 323.234 80.7598 323.12 80.2198 322.892C79.6798 322.652 79.2118 322.316 78.8158 321.884C78.4318 321.452 78.1318 320.936 77.9158 320.336C77.6998 319.736 77.5918 319.064 77.5918 318.32C77.5918 317.588 77.6998 316.922 77.9158 316.322C78.1318 315.71 78.4318 315.188 78.8158 314.756C79.2118 314.324 79.6798 313.994 80.2198 313.766C80.7598 313.526 81.3478 313.406 81.9838 313.406C82.6198 313.406 83.2078 313.526 83.7478 313.766C84.2878 313.994 84.7498 314.324 85.1338 314.756C85.5298 315.188 85.8358 315.71 86.0518 316.322C86.2678 316.922 86.3758 317.588 86.3758 318.32ZM84.6298 318.32C84.6298 317.264 84.3898 316.43 83.9098 315.818C83.4418 315.194 82.7998 314.882 81.9838 314.882C81.1678 314.882 80.5198 315.194 80.0398 315.818C79.5718 316.43 79.3378 317.264 79.3378 318.32C79.3378 319.376 79.5718 320.216 80.0398 320.84C80.5198 321.452 81.1678 321.758 81.9838 321.758C82.7998 321.758 83.4418 321.452 83.9098 320.84C84.3898 320.216 84.6298 319.376 84.6298 318.32ZM90.909 321.794C91.593 321.794 92.097 321.704 92.421 321.524C92.757 321.344 92.925 321.056 92.925 320.66C92.925 320.252 92.763 319.928 92.439 319.688C92.115 319.448 91.581 319.178 90.837 318.878C90.477 318.734 90.129 318.59 89.793 318.446C89.469 318.29 89.187 318.11 88.947 317.906C88.707 317.702 88.515 317.456 88.371 317.168C88.227 316.88 88.155 316.526 88.155 316.106C88.155 315.278 88.461 314.624 89.073 314.144C89.685 313.652 90.519 313.406 91.575 313.406C91.839 313.406 92.103 313.424 92.367 313.46C92.631 313.484 92.877 313.52 93.105 313.568C93.333 313.604 93.531 313.646 93.699 313.694C93.879 313.742 94.017 313.784 94.113 313.82L93.807 315.26C93.627 315.164 93.345 315.068 92.961 314.972C92.577 314.864 92.115 314.81 91.575 314.81C91.107 314.81 90.699 314.906 90.351 315.098C90.003 315.278 89.829 315.566 89.829 315.962C89.829 316.166 89.865 316.346 89.937 316.502C90.021 316.658 90.141 316.802 90.297 316.934C90.465 317.054 90.669 317.168 90.909 317.276C91.149 317.384 91.437 317.498 91.773 317.618C92.217 317.786 92.613 317.954 92.961 318.122C93.309 318.278 93.603 318.464 93.843 318.68C94.095 318.896 94.287 319.16 94.419 319.472C94.551 319.772 94.617 320.144 94.617 320.588C94.617 321.452 94.293 322.106 93.645 322.55C93.009 322.994 92.097 323.216 90.909 323.216C90.081 323.216 89.433 323.144 88.965 323C88.497 322.868 88.179 322.766 88.011 322.694L88.317 321.254C88.509 321.326 88.815 321.434 89.235 321.578C89.655 321.722 90.213 321.794 90.909 321.794ZM98.4382 323H96.7642V313.64H98.4382V323ZM97.5922 311.948C97.2922 311.948 97.0342 311.852 96.8182 311.66C96.6142 311.456 96.5122 311.186 96.5122 310.85C96.5122 310.514 96.6142 310.25 96.8182 310.058C97.0342 309.854 97.2922 309.752 97.5922 309.752C97.8922 309.752 98.1442 309.854 98.3482 310.058C98.5642 310.25 98.6722 310.514 98.6722 310.85C98.6722 311.186 98.5642 311.456 98.3482 311.66C98.1442 311.852 97.8922 311.948 97.5922 311.948ZM102.883 313.64H106.429V315.044H102.883V319.364C102.883 319.832 102.919 320.222 102.991 320.534C103.063 320.834 103.171 321.074 103.315 321.254C103.459 321.422 103.639 321.542 103.855 321.614C104.071 321.686 104.323 321.722 104.611 321.722C105.115 321.722 105.517 321.668 105.817 321.56C106.129 321.44 106.345 321.356 106.465 321.308L106.789 322.694C106.621 322.778 106.327 322.88 105.907 323C105.487 323.132 105.007 323.198 104.467 323.198C103.831 323.198 103.303 323.12 102.883 322.964C102.475 322.796 102.145 322.55 101.893 322.226C101.641 321.902 101.461 321.506 101.353 321.038C101.257 320.558 101.209 320.006 101.209 319.382V311.03L102.883 310.742V313.64ZM110.233 323H108.559V313.64H110.233V323ZM109.387 311.948C109.087 311.948 108.829 311.852 108.613 311.66C108.409 311.456 108.307 311.186 108.307 310.85C108.307 310.514 108.409 310.25 108.613 310.058C108.829 309.854 109.087 309.752 109.387 309.752C109.687 309.752 109.939 309.854 110.143 310.058C110.359 310.25 110.467 310.514 110.467 310.85C110.467 311.186 110.359 311.456 110.143 311.66C109.939 311.852 109.687 311.948 109.387 311.948ZM120.42 313.64C119.952 315.392 119.4 317.072 118.764 318.68C118.14 320.288 117.534 321.728 116.946 323H115.434C114.846 321.728 114.234 320.288 113.598 318.68C112.974 317.072 112.428 315.392 111.96 313.64H113.76C113.904 314.228 114.072 314.858 114.264 315.53C114.468 316.19 114.678 316.85 114.894 317.51C115.122 318.158 115.35 318.788 115.578 319.4C115.806 320.012 116.022 320.558 116.226 321.038C116.43 320.558 116.646 320.012 116.874 319.4C117.102 318.788 117.324 318.158 117.54 317.51C117.768 316.85 117.978 316.19 118.17 315.53C118.374 314.858 118.548 314.228 118.692 313.64H120.42ZM130.163 318.32C130.163 319.064 130.055 319.736 129.839 320.336C129.623 320.936 129.317 321.452 128.921 321.884C128.537 322.316 128.075 322.652 127.535 322.892C126.995 323.12 126.407 323.234 125.771 323.234C125.135 323.234 124.547 323.12 124.007 322.892C123.467 322.652 122.999 322.316 122.603 321.884C122.219 321.452 121.919 320.936 121.703 320.336C121.487 319.736 121.379 319.064 121.379 318.32C121.379 317.588 121.487 316.922 121.703 316.322C121.919 315.71 122.219 315.188 122.603 314.756C122.999 314.324 123.467 313.994 124.007 313.766C124.547 313.526 125.135 313.406 125.771 313.406C126.407 313.406 126.995 313.526 127.535 313.766C128.075 313.994 128.537 314.324 128.921 314.756C129.317 315.188 129.623 315.71 129.839 316.322C130.055 316.922 130.163 317.588 130.163 318.32ZM128.417 318.32C128.417 317.264 128.177 316.43 127.697 315.818C127.229 315.194 126.587 314.882 125.771 314.882C124.955 314.882 124.307 315.194 123.827 315.818C123.359 316.43 123.125 317.264 123.125 318.32C123.125 319.376 123.359 320.216 123.827 320.84C124.307 321.452 124.955 321.758 125.771 321.758C126.587 321.758 127.229 321.452 127.697 320.84C128.177 320.216 128.417 319.376 128.417 318.32ZM134.696 321.794C135.38 321.794 135.884 321.704 136.208 321.524C136.544 321.344 136.712 321.056 136.712 320.66C136.712 320.252 136.55 319.928 136.226 319.688C135.902 319.448 135.368 319.178 134.624 318.878C134.264 318.734 133.916 318.59 133.58 318.446C133.256 318.29 132.974 318.11 132.734 317.906C132.494 317.702 132.302 317.456 132.158 317.168C132.014 316.88 131.942 316.526 131.942 316.106C131.942 315.278 132.248 314.624 132.86 314.144C133.472 313.652 134.306 313.406 135.362 313.406C135.626 313.406 135.89 313.424 136.154 313.46C136.418 313.484 136.664 313.52 136.892 313.568C137.12 313.604 137.318 313.646 137.486 313.694C137.666 313.742 137.804 313.784 137.9 313.82L137.594 315.26C137.414 315.164 137.132 315.068 136.748 314.972C136.364 314.864 135.902 314.81 135.362 314.81C134.894 314.81 134.486 314.906 134.138 315.098C133.79 315.278 133.616 315.566 133.616 315.962C133.616 316.166 133.652 316.346 133.724 316.502C133.808 316.658 133.928 316.802 134.084 316.934C134.252 317.054 134.456 317.168 134.696 317.276C134.936 317.384 135.224 317.498 135.56 317.618C136.004 317.786 136.4 317.954 136.748 318.122C137.096 318.278 137.39 318.464 137.63 318.68C137.882 318.896 138.074 319.16 138.206 319.472C138.338 319.772 138.404 320.144 138.404 320.588C138.404 321.452 138.08 322.106 137.432 322.55C136.796 322.994 135.884 323.216 134.696 323.216C133.868 323.216 133.22 323.144 132.752 323C132.284 322.868 131.966 322.766 131.798 322.694L132.104 321.254C132.296 321.326 132.602 321.434 133.022 321.578C133.442 321.722 134 321.794 134.696 321.794Z" fill="black"/>
<path d="M333.634 49.054C333.838 48.922 334.144 48.784 334.552 48.64C334.972 48.496 335.452 48.424 335.992 48.424C336.664 48.424 337.258 48.544 337.774 48.784C338.302 49.024 338.746 49.36 339.106 49.792C339.466 50.224 339.736 50.74 339.916 51.34C340.108 51.94 340.204 52.6 340.204 53.32C340.204 54.076 340.09 54.76 339.862 55.372C339.646 55.972 339.334 56.482 338.926 56.902C338.518 57.322 338.026 57.646 337.45 57.874C336.874 58.102 336.226 58.216 335.506 58.216C334.726 58.216 334.036 58.162 333.436 58.054C332.836 57.946 332.344 57.838 331.96 57.73V44.32L333.634 44.032V49.054ZM333.634 56.542C333.802 56.59 334.036 56.638 334.336 56.686C334.648 56.722 335.032 56.74 335.488 56.74C336.388 56.74 337.108 56.446 337.648 55.858C338.188 55.258 338.458 54.412 338.458 53.32C338.458 52.84 338.41 52.39 338.314 51.97C338.218 51.55 338.062 51.19 337.846 50.89C337.63 50.578 337.348 50.338 337 50.17C336.664 49.99 336.256 49.9 335.776 49.9C335.32 49.9 334.9 49.978 334.516 50.134C334.132 50.29 333.838 50.452 333.634 50.62V56.542ZM345.727 56.794C346.123 56.794 346.471 56.788 346.771 56.776C347.083 56.752 347.341 56.716 347.545 56.668V53.878C347.425 53.818 347.227 53.77 346.951 53.734C346.687 53.686 346.363 53.662 345.979 53.662C345.727 53.662 345.457 53.68 345.169 53.716C344.893 53.752 344.635 53.83 344.395 53.95C344.167 54.058 343.975 54.214 343.819 54.418C343.663 54.61 343.585 54.868 343.585 55.192C343.585 55.792 343.777 56.212 344.161 56.452C344.545 56.68 345.067 56.794 345.727 56.794ZM345.583 48.406C346.255 48.406 346.819 48.496 347.275 48.676C347.743 48.844 348.115 49.09 348.391 49.414C348.679 49.726 348.883 50.104 349.003 50.548C349.123 50.98 349.183 51.46 349.183 51.988V57.838C349.039 57.862 348.835 57.898 348.571 57.946C348.319 57.982 348.031 58.018 347.707 58.054C347.383 58.09 347.029 58.12 346.645 58.144C346.273 58.18 345.901 58.198 345.529 58.198C345.001 58.198 344.515 58.144 344.071 58.036C343.627 57.928 343.243 57.76 342.919 57.532C342.595 57.292 342.343 56.98 342.163 56.596C341.983 56.212 341.893 55.75 341.893 55.21C341.893 54.694 341.995 54.25 342.199 53.878C342.415 53.506 342.703 53.206 343.063 52.978C343.423 52.75 343.843 52.582 344.323 52.474C344.803 52.366 345.307 52.312 345.835 52.312C346.003 52.312 346.177 52.324 346.357 52.348C346.537 52.36 346.705 52.384 346.861 52.42C347.029 52.444 347.173 52.468 347.293 52.492C347.413 52.516 347.497 52.534 347.545 52.546V52.078C347.545 51.802 347.515 51.532 347.455 51.268C347.395 50.992 347.287 50.752 347.131 50.548C346.975 50.332 346.759 50.164 346.483 50.044C346.219 49.912 345.871 49.846 345.439 49.846C344.887 49.846 344.401 49.888 343.981 49.972C343.573 50.044 343.267 50.122 343.063 50.206L342.865 48.82C343.081 48.724 343.441 48.634 343.945 48.55C344.449 48.454 344.995 48.406 345.583 48.406ZM350.433 61.366C350.289 61.366 350.103 61.348 349.875 61.312C349.647 61.276 349.455 61.228 349.299 61.168L349.515 59.8C349.635 59.836 349.773 59.866 349.929 59.89C350.085 59.914 350.229 59.926 350.361 59.926C350.937 59.926 351.345 59.746 351.585 59.386C351.837 59.038 351.963 58.522 351.963 57.838V48.64H353.637V57.82C353.637 59.02 353.361 59.908 352.809 60.484C352.269 61.072 351.477 61.366 350.433 61.366ZM352.791 46.948C352.491 46.948 352.233 46.852 352.017 46.66C351.813 46.456 351.711 46.186 351.711 45.85C351.711 45.514 351.813 45.25 352.017 45.058C352.233 44.854 352.491 44.752 352.791 44.752C353.091 44.752 353.343 44.854 353.547 45.058C353.763 45.25 353.871 45.514 353.871 45.85C353.871 46.186 353.763 46.456 353.547 46.66C353.343 46.852 353.091 46.948 352.791 46.948ZM359.684 56.794C360.08 56.794 360.428 56.788 360.728 56.776C361.04 56.752 361.298 56.716 361.502 56.668V53.878C361.382 53.818 361.184 53.77 360.908 53.734C360.644 53.686 360.32 53.662 359.936 53.662C359.684 53.662 359.414 53.68 359.126 53.716C358.85 53.752 358.592 53.83 358.352 53.95C358.124 54.058 357.932 54.214 357.776 54.418C357.62 54.61 357.542 54.868 357.542 55.192C357.542 55.792 357.734 56.212 358.118 56.452C358.502 56.68 359.024 56.794 359.684 56.794ZM359.54 48.406C360.212 48.406 360.776 48.496 361.232 48.676C361.7 48.844 362.072 49.09 362.348 49.414C362.636 49.726 362.84 50.104 362.96 50.548C363.08 50.98 363.14 51.46 363.14 51.988V57.838C362.996 57.862 362.792 57.898 362.528 57.946C362.276 57.982 361.988 58.018 361.664 58.054C361.34 58.09 360.986 58.12 360.602 58.144C360.23 58.18 359.858 58.198 359.486 58.198C358.958 58.198 358.472 58.144 358.028 58.036C357.584 57.928 357.2 57.76 356.876 57.532C356.552 57.292 356.3 56.98 356.12 56.596C355.94 56.212 355.85 55.75 355.85 55.21C355.85 54.694 355.952 54.25 356.156 53.878C356.372 53.506 356.66 53.206 357.02 52.978C357.38 52.75 357.8 52.582 358.28 52.474C358.76 52.366 359.264 52.312 359.792 52.312C359.96 52.312 360.134 52.324 360.314 52.348C360.494 52.36 360.662 52.384 360.818 52.42C360.986 52.444 361.13 52.468 361.25 52.492C361.37 52.516 361.454 52.534 361.502 52.546V52.078C361.502 51.802 361.472 51.532 361.412 51.268C361.352 50.992 361.244 50.752 361.088 50.548C360.932 50.332 360.716 50.164 360.44 50.044C360.176 49.912 359.828 49.846 359.396 49.846C358.844 49.846 358.358 49.888 357.938 49.972C357.53 50.044 357.224 50.122 357.02 50.206L356.822 48.82C357.038 48.724 357.398 48.634 357.902 48.55C358.406 48.454 358.952 48.406 359.54 48.406ZM317.898 72.62C317.694 72.452 317.4 72.29 317.016 72.134C316.632 71.978 316.212 71.9 315.756 71.9C315.276 71.9 314.862 71.99 314.514 72.17C314.178 72.338 313.902 72.578 313.686 72.89C313.47 73.19 313.314 73.55 313.218 73.97C313.122 74.39 313.074 74.84 313.074 75.32C313.074 76.412 313.344 77.258 313.884 77.858C314.424 78.446 315.144 78.74 316.044 78.74C316.5 78.74 316.878 78.722 317.178 78.686C317.49 78.638 317.73 78.59 317.898 78.542V72.62ZM317.898 66.32L319.572 66.032V79.73C319.188 79.838 318.696 79.946 318.096 80.054C317.496 80.162 316.806 80.216 316.026 80.216C315.306 80.216 314.658 80.102 314.082 79.874C313.506 79.646 313.014 79.322 312.606 78.902C312.198 78.482 311.88 77.972 311.652 77.372C311.436 76.76 311.328 76.076 311.328 75.32C311.328 74.6 311.418 73.94 311.598 73.34C311.79 72.74 312.066 72.224 312.426 71.792C312.786 71.36 313.224 71.024 313.74 70.784C314.268 70.544 314.868 70.424 315.54 70.424C316.08 70.424 316.554 70.496 316.962 70.64C317.382 70.784 317.694 70.922 317.898 71.054V66.32ZM321.928 75.338C321.928 74.51 322.048 73.79 322.288 73.178C322.528 72.554 322.846 72.038 323.242 71.63C323.638 71.222 324.094 70.916 324.61 70.712C325.126 70.508 325.654 70.406 326.194 70.406C327.454 70.406 328.42 70.802 329.092 71.594C329.764 72.374 330.1 73.568 330.1 75.176C330.1 75.248 330.1 75.344 330.1 75.464C330.1 75.572 330.094 75.674 330.082 75.77H323.674C323.746 76.742 324.028 77.48 324.52 77.984C325.012 78.488 325.78 78.74 326.824 78.74C327.412 78.74 327.904 78.692 328.3 78.596C328.708 78.488 329.014 78.386 329.218 78.29L329.452 79.694C329.248 79.802 328.888 79.916 328.372 80.036C327.868 80.156 327.292 80.216 326.644 80.216C325.828 80.216 325.12 80.096 324.52 79.856C323.932 79.604 323.446 79.262 323.062 78.83C322.678 78.398 322.39 77.888 322.198 77.3C322.018 76.7 321.928 76.046 321.928 75.338ZM328.354 74.42C328.366 73.664 328.174 73.046 327.778 72.566C327.394 72.074 326.86 71.828 326.176 71.828C325.792 71.828 325.45 71.906 325.15 72.062C324.862 72.206 324.616 72.398 324.412 72.638C324.208 72.878 324.046 73.154 323.926 73.466C323.818 73.778 323.746 74.096 323.71 74.42H328.354ZM332.504 70.91C332.888 70.814 333.398 70.712 334.034 70.604C334.67 70.496 335.402 70.442 336.23 70.442C336.974 70.442 337.592 70.55 338.084 70.766C338.576 70.97 338.966 71.264 339.254 71.648C339.554 72.02 339.764 72.47 339.884 72.998C340.004 73.526 340.064 74.108 340.064 74.744V80H338.39V75.104C338.39 74.528 338.348 74.036 338.264 73.628C338.192 73.22 338.066 72.89 337.886 72.638C337.706 72.386 337.466 72.206 337.166 72.098C336.866 71.978 336.494 71.918 336.05 71.918C335.87 71.918 335.684 71.924 335.492 71.936C335.3 71.948 335.114 71.966 334.934 71.99C334.766 72.002 334.61 72.02 334.466 72.044C334.334 72.068 334.238 72.086 334.178 72.098V80H332.504V70.91ZM345.018 78.794C345.702 78.794 346.206 78.704 346.53 78.524C346.866 78.344 347.034 78.056 347.034 77.66C347.034 77.252 346.872 76.928 346.548 76.688C346.224 76.448 345.69 76.178 344.946 75.878C344.586 75.734 344.238 75.59 343.902 75.446C343.578 75.29 343.296 75.11 343.056 74.906C342.816 74.702 342.624 74.456 342.48 74.168C342.336 73.88 342.264 73.526 342.264 73.106C342.264 72.278 342.57 71.624 343.182 71.144C343.794 70.652 344.628 70.406 345.684 70.406C345.948 70.406 346.212 70.424 346.476 70.46C346.74 70.484 346.986 70.52 347.214 70.568C347.442 70.604 347.64 70.646 347.808 70.694C347.988 70.742 348.126 70.784 348.222 70.82L347.916 72.26C347.736 72.164 347.454 72.068 347.07 71.972C346.686 71.864 346.224 71.81 345.684 71.81C345.216 71.81 344.808 71.906 344.46 72.098C344.112 72.278 343.938 72.566 343.938 72.962C343.938 73.166 343.974 73.346 344.046 73.502C344.13 73.658 344.25 73.802 344.406 73.934C344.574 74.054 344.778 74.168 345.018 74.276C345.258 74.384 345.546 74.498 345.882 74.618C346.326 74.786 346.722 74.954 347.07 75.122C347.418 75.278 347.712 75.464 347.952 75.68C348.204 75.896 348.396 76.16 348.528 76.472C348.66 76.772 348.726 77.144 348.726 77.588C348.726 78.452 348.402 79.106 347.754 79.55C347.118 79.994 346.206 80.216 345.018 80.216C344.19 80.216 343.542 80.144 343.074 80C342.606 79.868 342.288 79.766 342.12 79.694L342.426 78.254C342.618 78.326 342.924 78.434 343.344 78.578C343.764 78.722 344.322 78.794 345.018 78.794ZM352.548 80H350.874V70.64H352.548V80ZM351.702 68.948C351.402 68.948 351.144 68.852 350.928 68.66C350.724 68.456 350.622 68.186 350.622 67.85C350.622 67.514 350.724 67.25 350.928 67.058C351.144 66.854 351.402 66.752 351.702 66.752C352.002 66.752 352.254 66.854 352.458 67.058C352.674 67.25 352.782 67.514 352.782 67.85C352.782 68.186 352.674 68.456 352.458 68.66C352.254 68.852 352.002 68.948 351.702 68.948ZM361.474 72.62C361.27 72.452 360.976 72.29 360.592 72.134C360.208 71.978 359.788 71.9 359.332 71.9C358.852 71.9 358.438 71.99 358.09 72.17C357.754 72.338 357.478 72.578 357.262 72.89C357.046 73.19 356.89 73.55 356.794 73.97C356.698 74.39 356.65 74.84 356.65 75.32C356.65 76.412 356.92 77.258 357.46 77.858C358 78.446 358.72 78.74 359.62 78.74C360.076 78.74 360.454 78.722 360.754 78.686C361.066 78.638 361.306 78.59 361.474 78.542V72.62ZM361.474 66.32L363.148 66.032V79.73C362.764 79.838 362.272 79.946 361.672 80.054C361.072 80.162 360.382 80.216 359.602 80.216C358.882 80.216 358.234 80.102 357.658 79.874C357.082 79.646 356.59 79.322 356.182 78.902C355.774 78.482 355.456 77.972 355.228 77.372C355.012 76.76 354.904 76.076 354.904 75.32C354.904 74.6 354.994 73.94 355.174 73.34C355.366 72.74 355.642 72.224 356.002 71.792C356.362 71.36 356.8 71.024 357.316 70.784C357.844 70.544 358.444 70.424 359.116 70.424C359.656 70.424 360.13 70.496 360.538 70.64C360.958 70.784 361.27 70.922 361.474 71.054V66.32ZM369.194 78.794C369.59 78.794 369.938 78.788 370.238 78.776C370.55 78.752 370.808 78.716 371.012 78.668V75.878C370.892 75.818 370.694 75.77 370.418 75.734C370.154 75.686 369.83 75.662 369.446 75.662C369.194 75.662 368.924 75.68 368.636 75.716C368.36 75.752 368.102 75.83 367.862 75.95C367.634 76.058 367.442 76.214 367.286 76.418C367.13 76.61 367.052 76.868 367.052 77.192C367.052 77.792 367.244 78.212 367.628 78.452C368.012 78.68 368.534 78.794 369.194 78.794ZM369.05 70.406C369.722 70.406 370.286 70.496 370.742 70.676C371.21 70.844 371.582 71.09 371.858 71.414C372.146 71.726 372.35 72.104 372.47 72.548C372.59 72.98 372.65 73.46 372.65 73.988V79.838C372.506 79.862 372.302 79.898 372.038 79.946C371.786 79.982 371.498 80.018 371.174 80.054C370.85 80.09 370.496 80.12 370.112 80.144C369.74 80.18 369.368 80.198 368.996 80.198C368.468 80.198 367.982 80.144 367.538 80.036C367.094 79.928 366.71 79.76 366.386 79.532C366.062 79.292 365.81 78.98 365.63 78.596C365.45 78.212 365.36 77.75 365.36 77.21C365.36 76.694 365.462 76.25 365.666 75.878C365.882 75.506 366.17 75.206 366.53 74.978C366.89 74.75 367.31 74.582 367.79 74.474C368.27 74.366 368.774 74.312 369.302 74.312C369.47 74.312 369.644 74.324 369.824 74.348C370.004 74.36 370.172 74.384 370.328 74.42C370.496 74.444 370.64 74.468 370.76 74.492C370.88 74.516 370.964 74.534 371.012 74.546V74.078C371.012 73.802 370.982 73.532 370.922 73.268C370.862 72.992 370.754 72.752 370.598 72.548C370.442 72.332 370.226 72.164 369.95 72.044C369.686 71.912 369.338 71.846 368.906 71.846C368.354 71.846 367.868 71.888 367.448 71.972C367.04 72.044 366.734 72.122 366.53 72.206L366.332 70.82C366.548 70.724 366.908 70.634 367.412 70.55C367.916 70.454 368.462 70.406 369.05 70.406ZM381.478 72.62C381.274 72.452 380.98 72.29 380.596 72.134C380.212 71.978 379.792 71.9 379.336 71.9C378.856 71.9 378.442 71.99 378.094 72.17C377.758 72.338 377.482 72.578 377.266 72.89C377.05 73.19 376.894 73.55 376.798 73.97C376.702 74.39 376.654 74.84 376.654 75.32C376.654 76.412 376.924 77.258 377.464 77.858C378.004 78.446 378.724 78.74 379.624 78.74C380.08 78.74 380.458 78.722 380.758 78.686C381.07 78.638 381.31 78.59 381.478 78.542V72.62ZM381.478 66.32L383.152 66.032V79.73C382.768 79.838 382.276 79.946 381.676 80.054C381.076 80.162 380.386 80.216 379.606 80.216C378.886 80.216 378.238 80.102 377.662 79.874C377.086 79.646 376.594 79.322 376.186 78.902C375.778 78.482 375.46 77.972 375.232 77.372C375.016 76.76 374.908 76.076 374.908 75.32C374.908 74.6 374.998 73.94 375.178 73.34C375.37 72.74 375.646 72.224 376.006 71.792C376.366 71.36 376.804 71.024 377.32 70.784C377.848 70.544 378.448 70.424 379.12 70.424C379.66 70.424 380.134 70.496 380.542 70.64C380.962 70.784 381.274 70.922 381.478 71.054V66.32Z" fill="black"/>
<path d="M328.135 177.794C328.819 177.794 329.323 177.704 329.647 177.524C329.983 177.344 330.151 177.056 330.151 176.66C330.151 176.252 329.989 175.928 329.665 175.688C329.341 175.448 328.807 175.178 328.063 174.878C327.703 174.734 327.355 174.59 327.019 174.446C326.695 174.29 326.413 174.11 326.173 173.906C325.933 173.702 325.741 173.456 325.597 173.168C325.453 172.88 325.381 172.526 325.381 172.106C325.381 171.278 325.687 170.624 326.299 170.144C326.911 169.652 327.745 169.406 328.801 169.406C329.065 169.406 329.329 169.424 329.593 169.46C329.857 169.484 330.103 169.52 330.331 169.568C330.559 169.604 330.757 169.646 330.925 169.694C331.105 169.742 331.243 169.784 331.339 169.82L331.033 171.26C330.853 171.164 330.571 171.068 330.187 170.972C329.803 170.864 329.341 170.81 328.801 170.81C328.333 170.81 327.925 170.906 327.577 171.098C327.229 171.278 327.055 171.566 327.055 171.962C327.055 172.166 327.091 172.346 327.163 172.502C327.247 172.658 327.367 172.802 327.523 172.934C327.691 173.054 327.895 173.168 328.135 173.276C328.375 173.384 328.663 173.498 328.999 173.618C329.443 173.786 329.839 173.954 330.187 174.122C330.535 174.278 330.829 174.464 331.069 174.68C331.321 174.896 331.513 175.16 331.645 175.472C331.777 175.772 331.843 176.144 331.843 176.588C331.843 177.452 331.519 178.106 330.871 178.55C330.235 178.994 329.323 179.216 328.135 179.216C327.307 179.216 326.659 179.144 326.191 179C325.723 178.868 325.405 178.766 325.237 178.694L325.543 177.254C325.735 177.326 326.041 177.434 326.461 177.578C326.881 177.722 327.439 177.794 328.135 177.794ZM341.442 178.73C341.058 178.826 340.548 178.928 339.912 179.036C339.288 179.144 338.562 179.198 337.734 179.198C337.014 179.198 336.408 179.096 335.916 178.892C335.424 178.676 335.028 178.376 334.728 177.992C334.428 177.608 334.212 177.158 334.08 176.642C333.948 176.114 333.882 175.532 333.882 174.896V169.64H335.556V174.536C335.556 175.676 335.736 176.492 336.096 176.984C336.456 177.476 337.062 177.722 337.914 177.722C338.094 177.722 338.28 177.716 338.472 177.704C338.664 177.692 338.844 177.68 339.012 177.668C339.18 177.644 339.33 177.626 339.462 177.614C339.606 177.59 339.708 177.566 339.768 177.542V169.64H341.442V178.73ZM350.824 174.338C350.824 173.246 350.554 172.406 350.014 171.818C349.474 171.23 348.754 170.936 347.854 170.936C347.35 170.936 346.954 170.954 346.666 170.99C346.39 171.026 346.168 171.068 346 171.116V177.02C346.204 177.188 346.498 177.35 346.882 177.506C347.266 177.662 347.686 177.74 348.142 177.74C348.622 177.74 349.03 177.656 349.366 177.488C349.714 177.308 349.996 177.068 350.212 176.768C350.428 176.456 350.584 176.096 350.68 175.688C350.776 175.268 350.824 174.818 350.824 174.338ZM352.57 174.338C352.57 175.046 352.474 175.7 352.282 176.3C352.102 176.9 351.832 177.416 351.472 177.848C351.112 178.28 350.668 178.616 350.14 178.856C349.624 179.096 349.03 179.216 348.358 179.216C347.818 179.216 347.338 179.144 346.918 179C346.51 178.856 346.204 178.718 346 178.586V182.33H344.326V169.928C344.722 169.832 345.214 169.73 345.802 169.622C346.402 169.502 347.092 169.442 347.872 169.442C348.592 169.442 349.24 169.556 349.816 169.784C350.392 170.012 350.884 170.336 351.292 170.756C351.7 171.176 352.012 171.692 352.228 172.304C352.456 172.904 352.57 173.582 352.57 174.338ZM354.403 174.338C354.403 173.51 354.523 172.79 354.763 172.178C355.003 171.554 355.321 171.038 355.717 170.63C356.113 170.222 356.569 169.916 357.085 169.712C357.601 169.508 358.129 169.406 358.669 169.406C359.929 169.406 360.895 169.802 361.567 170.594C362.239 171.374 362.575 172.568 362.575 174.176C362.575 174.248 362.575 174.344 362.575 174.464C362.575 174.572 362.569 174.674 362.557 174.77H356.149C356.221 175.742 356.503 176.48 356.995 176.984C357.487 177.488 358.255 177.74 359.299 177.74C359.887 177.74 360.379 177.692 360.775 177.596C361.183 177.488 361.489 177.386 361.693 177.29L361.927 178.694C361.723 178.802 361.363 178.916 360.847 179.036C360.343 179.156 359.767 179.216 359.119 179.216C358.303 179.216 357.595 179.096 356.995 178.856C356.407 178.604 355.921 178.262 355.537 177.83C355.153 177.398 354.865 176.888 354.673 176.3C354.493 175.7 354.403 175.046 354.403 174.338ZM360.829 173.42C360.841 172.664 360.649 172.046 360.253 171.566C359.869 171.074 359.335 170.828 358.651 170.828C358.267 170.828 357.925 170.906 357.625 171.062C357.337 171.206 357.091 171.398 356.887 171.638C356.683 171.878 356.521 172.154 356.401 172.466C356.293 172.778 356.221 173.096 356.185 173.42H360.829ZM368.436 169.442C368.58 169.442 368.742 169.454 368.922 169.478C369.114 169.49 369.3 169.514 369.48 169.55C369.66 169.574 369.822 169.604 369.966 169.64C370.122 169.664 370.236 169.688 370.308 169.712L370.02 171.17C369.888 171.122 369.666 171.068 369.354 171.008C369.054 170.936 368.664 170.9 368.184 170.9C367.872 170.9 367.56 170.936 367.248 171.008C366.948 171.068 366.75 171.11 366.654 171.134V179H364.98V170.036C365.376 169.892 365.868 169.76 366.456 169.64C367.044 169.508 367.704 169.442 368.436 169.442ZM336.622 199.794C337.018 199.794 337.366 199.788 337.666 199.776C337.978 199.752 338.236 199.716 338.44 199.668V196.878C338.32 196.818 338.122 196.77 337.846 196.734C337.582 196.686 337.258 196.662 336.874 196.662C336.622 196.662 336.352 196.68 336.064 196.716C335.788 196.752 335.53 196.83 335.29 196.95C335.062 197.058 334.87 197.214 334.714 197.418C334.558 197.61 334.48 197.868 334.48 198.192C334.48 198.792 334.672 199.212 335.056 199.452C335.44 199.68 335.962 199.794 336.622 199.794ZM336.478 191.406C337.15 191.406 337.714 191.496 338.17 191.676C338.638 191.844 339.01 192.09 339.286 192.414C339.574 192.726 339.778 193.104 339.898 193.548C340.018 193.98 340.078 194.46 340.078 194.988V200.838C339.934 200.862 339.73 200.898 339.466 200.946C339.214 200.982 338.926 201.018 338.602 201.054C338.278 201.09 337.924 201.12 337.54 201.144C337.168 201.18 336.796 201.198 336.424 201.198C335.896 201.198 335.41 201.144 334.966 201.036C334.522 200.928 334.138 200.76 333.814 200.532C333.49 200.292 333.238 199.98 333.058 199.596C332.878 199.212 332.788 198.75 332.788 198.21C332.788 197.694 332.89 197.25 333.094 196.878C333.31 196.506 333.598 196.206 333.958 195.978C334.318 195.75 334.738 195.582 335.218 195.474C335.698 195.366 336.202 195.312 336.73 195.312C336.898 195.312 337.072 195.324 337.252 195.348C337.432 195.36 337.6 195.384 337.756 195.42C337.924 195.444 338.068 195.468 338.188 195.492C338.308 195.516 338.392 195.534 338.44 195.546V195.078C338.44 194.802 338.41 194.532 338.35 194.268C338.29 193.992 338.182 193.752 338.026 193.548C337.87 193.332 337.654 193.164 337.378 193.044C337.114 192.912 336.766 192.846 336.334 192.846C335.782 192.846 335.296 192.888 334.876 192.972C334.468 193.044 334.162 193.122 333.958 193.206L333.76 191.82C333.976 191.724 334.336 191.634 334.84 191.55C335.344 191.454 335.89 191.406 336.478 191.406ZM345.666 201.18C344.634 201.156 343.902 200.934 343.47 200.514C343.038 200.094 342.822 199.44 342.822 198.552V187.32L344.496 187.032V198.282C344.496 198.558 344.52 198.786 344.568 198.966C344.616 199.146 344.694 199.29 344.802 199.398C344.91 199.506 345.054 199.59 345.234 199.65C345.414 199.698 345.636 199.74 345.9 199.776L345.666 201.18ZM349.346 191.64H352.892V193.044H349.346V197.364C349.346 197.832 349.382 198.222 349.454 198.534C349.526 198.834 349.634 199.074 349.778 199.254C349.922 199.422 350.102 199.542 350.318 199.614C350.534 199.686 350.786 199.722 351.074 199.722C351.578 199.722 351.98 199.668 352.28 199.56C352.592 199.44 352.808 199.356 352.928 199.308L353.252 200.694C353.084 200.778 352.79 200.88 352.37 201C351.95 201.132 351.47 201.198 350.93 201.198C350.294 201.198 349.766 201.12 349.346 200.964C348.938 200.796 348.608 200.55 348.356 200.226C348.104 199.902 347.924 199.506 347.816 199.038C347.72 198.558 347.672 198.006 347.672 197.382V189.03L349.346 188.742V191.64ZM358.19 199.794C358.586 199.794 358.934 199.788 359.234 199.776C359.546 199.752 359.804 199.716 360.008 199.668V196.878C359.888 196.818 359.69 196.77 359.414 196.734C359.15 196.686 358.826 196.662 358.442 196.662C358.19 196.662 357.92 196.68 357.632 196.716C357.356 196.752 357.098 196.83 356.858 196.95C356.63 197.058 356.438 197.214 356.282 197.418C356.126 197.61 356.048 197.868 356.048 198.192C356.048 198.792 356.24 199.212 356.624 199.452C357.008 199.68 357.53 199.794 358.19 199.794ZM358.046 191.406C358.718 191.406 359.282 191.496 359.738 191.676C360.206 191.844 360.578 192.09 360.854 192.414C361.142 192.726 361.346 193.104 361.466 193.548C361.586 193.98 361.646 194.46 361.646 194.988V200.838C361.502 200.862 361.298 200.898 361.034 200.946C360.782 200.982 360.494 201.018 360.17 201.054C359.846 201.09 359.492 201.12 359.108 201.144C358.736 201.18 358.364 201.198 357.992 201.198C357.464 201.198 356.978 201.144 356.534 201.036C356.09 200.928 355.706 200.76 355.382 200.532C355.058 200.292 354.806 199.98 354.626 199.596C354.446 199.212 354.356 198.75 354.356 198.21C354.356 197.694 354.458 197.25 354.662 196.878C354.878 196.506 355.166 196.206 355.526 195.978C355.886 195.75 356.306 195.582 356.786 195.474C357.266 195.366 357.77 195.312 358.298 195.312C358.466 195.312 358.64 195.324 358.82 195.348C359 195.36 359.168 195.384 359.324 195.42C359.492 195.444 359.636 195.468 359.756 195.492C359.876 195.516 359.96 195.534 360.008 195.546V195.078C360.008 194.802 359.978 194.532 359.918 194.268C359.858 193.992 359.75 193.752 359.594 193.548C359.438 193.332 359.222 193.164 358.946 193.044C358.682 192.912 358.334 192.846 357.902 192.846C357.35 192.846 356.864 192.888 356.444 192.972C356.036 193.044 355.73 193.122 355.526 193.206L355.328 191.82C355.544 191.724 355.904 191.634 356.408 191.55C356.912 191.454 357.458 191.406 358.046 191.406ZM317.898 215.62C317.694 215.452 317.4 215.29 317.016 215.134C316.632 214.978 316.212 214.9 315.756 214.9C315.276 214.9 314.862 214.99 314.514 215.17C314.178 215.338 313.902 215.578 313.686 215.89C313.47 216.19 313.314 216.55 313.218 216.97C313.122 217.39 313.074 217.84 313.074 218.32C313.074 219.412 313.344 220.258 313.884 220.858C314.424 221.446 315.144 221.74 316.044 221.74C316.5 221.74 316.878 221.722 317.178 221.686C317.49 221.638 317.73 221.59 317.898 221.542V215.62ZM317.898 209.32L319.572 209.032V222.73C319.188 222.838 318.696 222.946 318.096 223.054C317.496 223.162 316.806 223.216 316.026 223.216C315.306 223.216 314.658 223.102 314.082 222.874C313.506 222.646 313.014 222.322 312.606 221.902C312.198 221.482 311.88 220.972 311.652 220.372C311.436 219.76 311.328 219.076 311.328 218.32C311.328 217.6 311.418 216.94 311.598 216.34C311.79 215.74 312.066 215.224 312.426 214.792C312.786 214.36 313.224 214.024 313.74 213.784C314.268 213.544 314.868 213.424 315.54 213.424C316.08 213.424 316.554 213.496 316.962 213.64C317.382 213.784 317.694 213.922 317.898 214.054V209.32ZM321.928 218.338C321.928 217.51 322.048 216.79 322.288 216.178C322.528 215.554 322.846 215.038 323.242 214.63C323.638 214.222 324.094 213.916 324.61 213.712C325.126 213.508 325.654 213.406 326.194 213.406C327.454 213.406 328.42 213.802 329.092 214.594C329.764 215.374 330.1 216.568 330.1 218.176C330.1 218.248 330.1 218.344 330.1 218.464C330.1 218.572 330.094 218.674 330.082 218.77H323.674C323.746 219.742 324.028 220.48 324.52 220.984C325.012 221.488 325.78 221.74 326.824 221.74C327.412 221.74 327.904 221.692 328.3 221.596C328.708 221.488 329.014 221.386 329.218 221.29L329.452 222.694C329.248 222.802 328.888 222.916 328.372 223.036C327.868 223.156 327.292 223.216 326.644 223.216C325.828 223.216 325.12 223.096 324.52 222.856C323.932 222.604 323.446 222.262 323.062 221.83C322.678 221.398 322.39 220.888 322.198 220.3C322.018 219.7 321.928 219.046 321.928 218.338ZM328.354 217.42C328.366 216.664 328.174 216.046 327.778 215.566C327.394 215.074 326.86 214.828 326.176 214.828C325.792 214.828 325.45 214.906 325.15 215.062C324.862 215.206 324.616 215.398 324.412 215.638C324.208 215.878 324.046 216.154 323.926 216.466C323.818 216.778 323.746 217.096 323.71 217.42H328.354ZM332.504 213.91C332.888 213.814 333.398 213.712 334.034 213.604C334.67 213.496 335.402 213.442 336.23 213.442C336.974 213.442 337.592 213.55 338.084 213.766C338.576 213.97 338.966 214.264 339.254 214.648C339.554 215.02 339.764 215.47 339.884 215.998C340.004 216.526 340.064 217.108 340.064 217.744V223H338.39V218.104C338.39 217.528 338.348 217.036 338.264 216.628C338.192 216.22 338.066 215.89 337.886 215.638C337.706 215.386 337.466 215.206 337.166 215.098C336.866 214.978 336.494 214.918 336.05 214.918C335.87 214.918 335.684 214.924 335.492 214.936C335.3 214.948 335.114 214.966 334.934 214.99C334.766 215.002 334.61 215.02 334.466 215.044C334.334 215.068 334.238 215.086 334.178 215.098V223H332.504V213.91ZM345.018 221.794C345.702 221.794 346.206 221.704 346.53 221.524C346.866 221.344 347.034 221.056 347.034 220.66C347.034 220.252 346.872 219.928 346.548 219.688C346.224 219.448 345.69 219.178 344.946 218.878C344.586 218.734 344.238 218.59 343.902 218.446C343.578 218.29 343.296 218.11 343.056 217.906C342.816 217.702 342.624 217.456 342.48 217.168C342.336 216.88 342.264 216.526 342.264 216.106C342.264 215.278 342.57 214.624 343.182 214.144C343.794 213.652 344.628 213.406 345.684 213.406C345.948 213.406 346.212 213.424 346.476 213.46C346.74 213.484 346.986 213.52 347.214 213.568C347.442 213.604 347.64 213.646 347.808 213.694C347.988 213.742 348.126 213.784 348.222 213.82L347.916 215.26C347.736 215.164 347.454 215.068 347.07 214.972C346.686 214.864 346.224 214.81 345.684 214.81C345.216 214.81 344.808 214.906 344.46 215.098C344.112 215.278 343.938 215.566 343.938 215.962C343.938 216.166 343.974 216.346 344.046 216.502C344.13 216.658 344.25 216.802 344.406 216.934C344.574 217.054 344.778 217.168 345.018 217.276C345.258 217.384 345.546 217.498 345.882 217.618C346.326 217.786 346.722 217.954 347.07 218.122C347.418 218.278 347.712 218.464 347.952 218.68C348.204 218.896 348.396 219.16 348.528 219.472C348.66 219.772 348.726 220.144 348.726 220.588C348.726 221.452 348.402 222.106 347.754 222.55C347.118 222.994 346.206 223.216 345.018 223.216C344.19 223.216 343.542 223.144 343.074 223C342.606 222.868 342.288 222.766 342.12 222.694L342.426 221.254C342.618 221.326 342.924 221.434 343.344 221.578C343.764 221.722 344.322 221.794 345.018 221.794ZM352.548 223H350.874V213.64H352.548V223ZM351.702 211.948C351.402 211.948 351.144 211.852 350.928 211.66C350.724 211.456 350.622 211.186 350.622 210.85C350.622 210.514 350.724 210.25 350.928 210.058C351.144 209.854 351.402 209.752 351.702 209.752C352.002 209.752 352.254 209.854 352.458 210.058C352.674 210.25 352.782 210.514 352.782 210.85C352.782 211.186 352.674 211.456 352.458 211.66C352.254 211.852 352.002 211.948 351.702 211.948ZM361.474 215.62C361.27 215.452 360.976 215.29 360.592 215.134C360.208 214.978 359.788 214.9 359.332 214.9C358.852 214.9 358.438 214.99 358.09 215.17C357.754 215.338 357.478 215.578 357.262 215.89C357.046 216.19 356.89 216.55 356.794 216.97C356.698 217.39 356.65 217.84 356.65 218.32C356.65 219.412 356.92 220.258 357.46 220.858C358 221.446 358.72 221.74 359.62 221.74C360.076 221.74 360.454 221.722 360.754 221.686C361.066 221.638 361.306 221.59 361.474 221.542V215.62ZM361.474 209.32L363.148 209.032V222.73C362.764 222.838 362.272 222.946 361.672 223.054C361.072 223.162 360.382 223.216 359.602 223.216C358.882 223.216 358.234 223.102 357.658 222.874C357.082 222.646 356.59 222.322 356.182 221.902C355.774 221.482 355.456 220.972 355.228 220.372C355.012 219.76 354.904 219.076 354.904 218.32C354.904 217.6 354.994 216.94 355.174 216.34C355.366 215.74 355.642 215.224 356.002 214.792C356.362 214.36 356.8 214.024 357.316 213.784C357.844 213.544 358.444 213.424 359.116 213.424C359.656 213.424 360.13 213.496 360.538 213.64C360.958 213.784 361.27 213.922 361.474 214.054V209.32ZM369.194 221.794C369.59 221.794 369.938 221.788 370.238 221.776C370.55 221.752 370.808 221.716 371.012 221.668V218.878C370.892 218.818 370.694 218.77 370.418 218.734C370.154 218.686 369.83 218.662 369.446 218.662C369.194 218.662 368.924 218.68 368.636 218.716C368.36 218.752 368.102 218.83 367.862 218.95C367.634 219.058 367.442 219.214 367.286 219.418C367.13 219.61 367.052 219.868 367.052 220.192C367.052 220.792 367.244 221.212 367.628 221.452C368.012 221.68 368.534 221.794 369.194 221.794ZM369.05 213.406C369.722 213.406 370.286 213.496 370.742 213.676C371.21 213.844 371.582 214.09 371.858 214.414C372.146 214.726 372.35 215.104 372.47 215.548C372.59 215.98 372.65 216.46 372.65 216.988V222.838C372.506 222.862 372.302 222.898 372.038 222.946C371.786 222.982 371.498 223.018 371.174 223.054C370.85 223.09 370.496 223.12 370.112 223.144C369.74 223.18 369.368 223.198 368.996 223.198C368.468 223.198 367.982 223.144 367.538 223.036C367.094 222.928 366.71 222.76 366.386 222.532C366.062 222.292 365.81 221.98 365.63 221.596C365.45 221.212 365.36 220.75 365.36 220.21C365.36 219.694 365.462 219.25 365.666 218.878C365.882 218.506 366.17 218.206 366.53 217.978C366.89 217.75 367.31 217.582 367.79 217.474C368.27 217.366 368.774 217.312 369.302 217.312C369.47 217.312 369.644 217.324 369.824 217.348C370.004 217.36 370.172 217.384 370.328 217.42C370.496 217.444 370.64 217.468 370.76 217.492C370.88 217.516 370.964 217.534 371.012 217.546V217.078C371.012 216.802 370.982 216.532 370.922 216.268C370.862 215.992 370.754 215.752 370.598 215.548C370.442 215.332 370.226 215.164 369.95 215.044C369.686 214.912 369.338 214.846 368.906 214.846C368.354 214.846 367.868 214.888 367.448 214.972C367.04 215.044 366.734 215.122 366.53 215.206L366.332 213.82C366.548 213.724 366.908 213.634 367.412 213.55C367.916 213.454 368.462 213.406 369.05 213.406ZM381.478 215.62C381.274 215.452 380.98 215.29 380.596 215.134C380.212 214.978 379.792 214.9 379.336 214.9C378.856 214.9 378.442 214.99 378.094 215.17C377.758 215.338 377.482 215.578 377.266 215.89C377.05 216.19 376.894 216.55 376.798 216.97C376.702 217.39 376.654 217.84 376.654 218.32C376.654 219.412 376.924 220.258 377.464 220.858C378.004 221.446 378.724 221.74 379.624 221.74C380.08 221.74 380.458 221.722 380.758 221.686C381.07 221.638 381.31 221.59 381.478 221.542V215.62ZM381.478 209.32L383.152 209.032V222.73C382.768 222.838 382.276 222.946 381.676 223.054C381.076 223.162 380.386 223.216 379.606 223.216C378.886 223.216 378.238 223.102 377.662 222.874C377.086 222.646 376.594 222.322 376.186 221.902C375.778 221.482 375.46 220.972 375.232 220.372C375.016 219.76 374.908 219.076 374.908 218.32C374.908 217.6 374.998 216.94 375.178 216.34C375.37 215.74 375.646 215.224 376.006 214.792C376.366 214.36 376.804 214.024 377.32 213.784C377.848 213.544 378.448 213.424 379.12 213.424C379.66 213.424 380.134 213.496 380.542 213.64C380.962 213.784 381.274 213.922 381.478 214.054V209.32Z" fill="black"/>
<path d="M336.622 343.794C337.018 343.794 337.366 343.788 337.666 343.776C337.978 343.752 338.236 343.716 338.44 343.668V340.878C338.32 340.818 338.122 340.77 337.846 340.734C337.582 340.686 337.258 340.662 336.874 340.662C336.622 340.662 336.352 340.68 336.064 340.716C335.788 340.752 335.53 340.83 335.29 340.95C335.062 341.058 334.87 341.214 334.714 341.418C334.558 341.61 334.48 341.868 334.48 342.192C334.48 342.792 334.672 343.212 335.056 343.452C335.44 343.68 335.962 343.794 336.622 343.794ZM336.478 335.406C337.15 335.406 337.714 335.496 338.17 335.676C338.638 335.844 339.01 336.09 339.286 336.414C339.574 336.726 339.778 337.104 339.898 337.548C340.018 337.98 340.078 338.46 340.078 338.988V344.838C339.934 344.862 339.73 344.898 339.466 344.946C339.214 344.982 338.926 345.018 338.602 345.054C338.278 345.09 337.924 345.12 337.54 345.144C337.168 345.18 336.796 345.198 336.424 345.198C335.896 345.198 335.41 345.144 334.966 345.036C334.522 344.928 334.138 344.76 333.814 344.532C333.49 344.292 333.238 343.98 333.058 343.596C332.878 343.212 332.788 342.75 332.788 342.21C332.788 341.694 332.89 341.25 333.094 340.878C333.31 340.506 333.598 340.206 333.958 339.978C334.318 339.75 334.738 339.582 335.218 339.474C335.698 339.366 336.202 339.312 336.73 339.312C336.898 339.312 337.072 339.324 337.252 339.348C337.432 339.36 337.6 339.384 337.756 339.42C337.924 339.444 338.068 339.468 338.188 339.492C338.308 339.516 338.392 339.534 338.44 339.546V339.078C338.44 338.802 338.41 338.532 338.35 338.268C338.29 337.992 338.182 337.752 338.026 337.548C337.87 337.332 337.654 337.164 337.378 337.044C337.114 336.912 336.766 336.846 336.334 336.846C335.782 336.846 335.296 336.888 334.876 336.972C334.468 337.044 334.162 337.122 333.958 337.206L333.76 335.82C333.976 335.724 334.336 335.634 334.84 335.55C335.344 335.454 335.89 335.406 336.478 335.406ZM345.666 345.18C344.634 345.156 343.902 344.934 343.47 344.514C343.038 344.094 342.822 343.44 342.822 342.552V331.32L344.496 331.032V342.282C344.496 342.558 344.52 342.786 344.568 342.966C344.616 343.146 344.694 343.29 344.802 343.398C344.91 343.506 345.054 343.59 345.234 343.65C345.414 343.698 345.636 343.74 345.9 343.776L345.666 345.18ZM349.346 335.64H352.892V337.044H349.346V341.364C349.346 341.832 349.382 342.222 349.454 342.534C349.526 342.834 349.634 343.074 349.778 343.254C349.922 343.422 350.102 343.542 350.318 343.614C350.534 343.686 350.786 343.722 351.074 343.722C351.578 343.722 351.98 343.668 352.28 343.56C352.592 343.44 352.808 343.356 352.928 343.308L353.252 344.694C353.084 344.778 352.79 344.88 352.37 345C351.95 345.132 351.47 345.198 350.93 345.198C350.294 345.198 349.766 345.12 349.346 344.964C348.938 344.796 348.608 344.55 348.356 344.226C348.104 343.902 347.924 343.506 347.816 343.038C347.72 342.558 347.672 342.006 347.672 341.382V333.03L349.346 332.742V335.64ZM358.19 343.794C358.586 343.794 358.934 343.788 359.234 343.776C359.546 343.752 359.804 343.716 360.008 343.668V340.878C359.888 340.818 359.69 340.77 359.414 340.734C359.15 340.686 358.826 340.662 358.442 340.662C358.19 340.662 357.92 340.68 357.632 340.716C357.356 340.752 357.098 340.83 356.858 340.95C356.63 341.058 356.438 341.214 356.282 341.418C356.126 341.61 356.048 341.868 356.048 342.192C356.048 342.792 356.24 343.212 356.624 343.452C357.008 343.68 357.53 343.794 358.19 343.794ZM358.046 335.406C358.718 335.406 359.282 335.496 359.738 335.676C360.206 335.844 360.578 336.09 360.854 336.414C361.142 336.726 361.346 337.104 361.466 337.548C361.586 337.98 361.646 338.46 361.646 338.988V344.838C361.502 344.862 361.298 344.898 361.034 344.946C360.782 344.982 360.494 345.018 360.17 345.054C359.846 345.09 359.492 345.12 359.108 345.144C358.736 345.18 358.364 345.198 357.992 345.198C357.464 345.198 356.978 345.144 356.534 345.036C356.09 344.928 355.706 344.76 355.382 344.532C355.058 344.292 354.806 343.98 354.626 343.596C354.446 343.212 354.356 342.75 354.356 342.21C354.356 341.694 354.458 341.25 354.662 340.878C354.878 340.506 355.166 340.206 355.526 339.978C355.886 339.75 356.306 339.582 356.786 339.474C357.266 339.366 357.77 339.312 358.298 339.312C358.466 339.312 358.64 339.324 358.82 339.348C359 339.36 359.168 339.384 359.324 339.42C359.492 339.444 359.636 339.468 359.756 339.492C359.876 339.516 359.96 339.534 360.008 339.546V339.078C360.008 338.802 359.978 338.532 359.918 338.268C359.858 337.992 359.75 337.752 359.594 337.548C359.438 337.332 359.222 337.164 358.946 337.044C358.682 336.912 358.334 336.846 357.902 336.846C357.35 336.846 356.864 336.888 356.444 336.972C356.036 337.044 355.73 337.122 355.526 337.206L355.328 335.82C355.544 335.724 355.904 335.634 356.408 335.55C356.912 335.454 357.458 335.406 358.046 335.406ZM317.898 359.62C317.694 359.452 317.4 359.29 317.016 359.134C316.632 358.978 316.212 358.9 315.756 358.9C315.276 358.9 314.862 358.99 314.514 359.17C314.178 359.338 313.902 359.578 313.686 359.89C313.47 360.19 313.314 360.55 313.218 360.97C313.122 361.39 313.074 361.84 313.074 362.32C313.074 363.412 313.344 364.258 313.884 364.858C314.424 365.446 315.144 365.74 316.044 365.74C316.5 365.74 316.878 365.722 317.178 365.686C317.49 365.638 317.73 365.59 317.898 365.542V359.62ZM317.898 353.32L319.572 353.032V366.73C319.188 366.838 318.696 366.946 318.096 367.054C317.496 367.162 316.806 367.216 316.026 367.216C315.306 367.216 314.658 367.102 314.082 366.874C313.506 366.646 313.014 366.322 312.606 365.902C312.198 365.482 311.88 364.972 311.652 364.372C311.436 363.76 311.328 363.076 311.328 362.32C311.328 361.6 311.418 360.94 311.598 360.34C311.79 359.74 312.066 359.224 312.426 358.792C312.786 358.36 313.224 358.024 313.74 357.784C314.268 357.544 314.868 357.424 315.54 357.424C316.08 357.424 316.554 357.496 316.962 357.64C317.382 357.784 317.694 357.922 317.898 358.054V353.32ZM321.928 362.338C321.928 361.51 322.048 360.79 322.288 360.178C322.528 359.554 322.846 359.038 323.242 358.63C323.638 358.222 324.094 357.916 324.61 357.712C325.126 357.508 325.654 357.406 326.194 357.406C327.454 357.406 328.42 357.802 329.092 358.594C329.764 359.374 330.1 360.568 330.1 362.176C330.1 362.248 330.1 362.344 330.1 362.464C330.1 362.572 330.094 362.674 330.082 362.77H323.674C323.746 363.742 324.028 364.48 324.52 364.984C325.012 365.488 325.78 365.74 326.824 365.74C327.412 365.74 327.904 365.692 328.3 365.596C328.708 365.488 329.014 365.386 329.218 365.29L329.452 366.694C329.248 366.802 328.888 366.916 328.372 367.036C327.868 367.156 327.292 367.216 326.644 367.216C325.828 367.216 325.12 367.096 324.52 366.856C323.932 366.604 323.446 366.262 323.062 365.83C322.678 365.398 322.39 364.888 322.198 364.3C322.018 363.7 321.928 363.046 321.928 362.338ZM328.354 361.42C328.366 360.664 328.174 360.046 327.778 359.566C327.394 359.074 326.86 358.828 326.176 358.828C325.792 358.828 325.45 358.906 325.15 359.062C324.862 359.206 324.616 359.398 324.412 359.638C324.208 359.878 324.046 360.154 323.926 360.466C323.818 360.778 323.746 361.096 323.71 361.42H328.354ZM332.504 357.91C332.888 357.814 333.398 357.712 334.034 357.604C334.67 357.496 335.402 357.442 336.23 357.442C336.974 357.442 337.592 357.55 338.084 357.766C338.576 357.97 338.966 358.264 339.254 358.648C339.554 359.02 339.764 359.47 339.884 359.998C340.004 360.526 340.064 361.108 340.064 361.744V367H338.39V362.104C338.39 361.528 338.348 361.036 338.264 360.628C338.192 360.22 338.066 359.89 337.886 359.638C337.706 359.386 337.466 359.206 337.166 359.098C336.866 358.978 336.494 358.918 336.05 358.918C335.87 358.918 335.684 358.924 335.492 358.936C335.3 358.948 335.114 358.966 334.934 358.99C334.766 359.002 334.61 359.02 334.466 359.044C334.334 359.068 334.238 359.086 334.178 359.098V367H332.504V357.91ZM345.018 365.794C345.702 365.794 346.206 365.704 346.53 365.524C346.866 365.344 347.034 365.056 347.034 364.66C347.034 364.252 346.872 363.928 346.548 363.688C346.224 363.448 345.69 363.178 344.946 362.878C344.586 362.734 344.238 362.59 343.902 362.446C343.578 362.29 343.296 362.11 343.056 361.906C342.816 361.702 342.624 361.456 342.48 361.168C342.336 360.88 342.264 360.526 342.264 360.106C342.264 359.278 342.57 358.624 343.182 358.144C343.794 357.652 344.628 357.406 345.684 357.406C345.948 357.406 346.212 357.424 346.476 357.46C346.74 357.484 346.986 357.52 347.214 357.568C347.442 357.604 347.64 357.646 347.808 357.694C347.988 357.742 348.126 357.784 348.222 357.82L347.916 359.26C347.736 359.164 347.454 359.068 347.07 358.972C346.686 358.864 346.224 358.81 345.684 358.81C345.216 358.81 344.808 358.906 344.46 359.098C344.112 359.278 343.938 359.566 343.938 359.962C343.938 360.166 343.974 360.346 344.046 360.502C344.13 360.658 344.25 360.802 344.406 360.934C344.574 361.054 344.778 361.168 345.018 361.276C345.258 361.384 345.546 361.498 345.882 361.618C346.326 361.786 346.722 361.954 347.07 362.122C347.418 362.278 347.712 362.464 347.952 362.68C348.204 362.896 348.396 363.16 348.528 363.472C348.66 363.772 348.726 364.144 348.726 364.588C348.726 365.452 348.402 366.106 347.754 366.55C347.118 366.994 346.206 367.216 345.018 367.216C344.19 367.216 343.542 367.144 343.074 367C342.606 366.868 342.288 366.766 342.12 366.694L342.426 365.254C342.618 365.326 342.924 365.434 343.344 365.578C343.764 365.722 344.322 365.794 345.018 365.794ZM352.548 367H350.874V357.64H352.548V367ZM351.702 355.948C351.402 355.948 351.144 355.852 350.928 355.66C350.724 355.456 350.622 355.186 350.622 354.85C350.622 354.514 350.724 354.25 350.928 354.058C351.144 353.854 351.402 353.752 351.702 353.752C352.002 353.752 352.254 353.854 352.458 354.058C352.674 354.25 352.782 354.514 352.782 354.85C352.782 355.186 352.674 355.456 352.458 355.66C352.254 355.852 352.002 355.948 351.702 355.948ZM361.474 359.62C361.27 359.452 360.976 359.29 360.592 359.134C360.208 358.978 359.788 358.9 359.332 358.9C358.852 358.9 358.438 358.99 358.09 359.17C357.754 359.338 357.478 359.578 357.262 359.89C357.046 360.19 356.89 360.55 356.794 360.97C356.698 361.39 356.65 361.84 356.65 362.32C356.65 363.412 356.92 364.258 357.46 364.858C358 365.446 358.72 365.74 359.62 365.74C360.076 365.74 360.454 365.722 360.754 365.686C361.066 365.638 361.306 365.59 361.474 365.542V359.62ZM361.474 353.32L363.148 353.032V366.73C362.764 366.838 362.272 366.946 361.672 367.054C361.072 367.162 360.382 367.216 359.602 367.216C358.882 367.216 358.234 367.102 357.658 366.874C357.082 366.646 356.59 366.322 356.182 365.902C355.774 365.482 355.456 364.972 355.228 364.372C355.012 363.76 354.904 363.076 354.904 362.32C354.904 361.6 354.994 360.94 355.174 360.34C355.366 359.74 355.642 359.224 356.002 358.792C356.362 358.36 356.8 358.024 357.316 357.784C357.844 357.544 358.444 357.424 359.116 357.424C359.656 357.424 360.13 357.496 360.538 357.64C360.958 357.784 361.27 357.922 361.474 358.054V353.32ZM369.194 365.794C369.59 365.794 369.938 365.788 370.238 365.776C370.55 365.752 370.808 365.716 371.012 365.668V362.878C370.892 362.818 370.694 362.77 370.418 362.734C370.154 362.686 369.83 362.662 369.446 362.662C369.194 362.662 368.924 362.68 368.636 362.716C368.36 362.752 368.102 362.83 367.862 362.95C367.634 363.058 367.442 363.214 367.286 363.418C367.13 363.61 367.052 363.868 367.052 364.192C367.052 364.792 367.244 365.212 367.628 365.452C368.012 365.68 368.534 365.794 369.194 365.794ZM369.05 357.406C369.722 357.406 370.286 357.496 370.742 357.676C371.21 357.844 371.582 358.09 371.858 358.414C372.146 358.726 372.35 359.104 372.47 359.548C372.59 359.98 372.65 360.46 372.65 360.988V366.838C372.506 366.862 372.302 366.898 372.038 366.946C371.786 366.982 371.498 367.018 371.174 367.054C370.85 367.09 370.496 367.12 370.112 367.144C369.74 367.18 369.368 367.198 368.996 367.198C368.468 367.198 367.982 367.144 367.538 367.036C367.094 366.928 366.71 366.76 366.386 366.532C366.062 366.292 365.81 365.98 365.63 365.596C365.45 365.212 365.36 364.75 365.36 364.21C365.36 363.694 365.462 363.25 365.666 362.878C365.882 362.506 366.17 362.206 366.53 361.978C366.89 361.75 367.31 361.582 367.79 361.474C368.27 361.366 368.774 361.312 369.302 361.312C369.47 361.312 369.644 361.324 369.824 361.348C370.004 361.36 370.172 361.384 370.328 361.42C370.496 361.444 370.64 361.468 370.76 361.492C370.88 361.516 370.964 361.534 371.012 361.546V361.078C371.012 360.802 370.982 360.532 370.922 360.268C370.862 359.992 370.754 359.752 370.598 359.548C370.442 359.332 370.226 359.164 369.95 359.044C369.686 358.912 369.338 358.846 368.906 358.846C368.354 358.846 367.868 358.888 367.448 358.972C367.04 359.044 366.734 359.122 366.53 359.206L366.332 357.82C366.548 357.724 366.908 357.634 367.412 357.55C367.916 357.454 368.462 357.406 369.05 357.406ZM381.478 359.62C381.274 359.452 380.98 359.29 380.596 359.134C380.212 358.978 379.792 358.9 379.336 358.9C378.856 358.9 378.442 358.99 378.094 359.17C377.758 359.338 377.482 359.578 377.266 359.89C377.05 360.19 376.894 360.55 376.798 360.97C376.702 361.39 376.654 361.84 376.654 362.32C376.654 363.412 376.924 364.258 377.464 364.858C378.004 365.446 378.724 365.74 379.624 365.74C380.08 365.74 380.458 365.722 380.758 365.686C381.07 365.638 381.31 365.59 381.478 365.542V359.62ZM381.478 353.32L383.152 353.032V366.73C382.768 366.838 382.276 366.946 381.676 367.054C381.076 367.162 380.386 367.216 379.606 367.216C378.886 367.216 378.238 367.102 377.662 366.874C377.086 366.646 376.594 366.322 376.186 365.902C375.778 365.482 375.46 364.972 375.232 364.372C375.016 363.76 374.908 363.076 374.908 362.32C374.908 361.6 374.998 360.94 375.178 360.34C375.37 359.74 375.646 359.224 376.006 358.792C376.366 358.36 376.804 358.024 377.32 357.784C377.848 357.544 378.448 357.424 379.12 357.424C379.66 357.424 380.134 357.496 380.542 357.64C380.962 357.784 381.274 357.922 381.478 358.054V353.32Z" fill="black"/>
<circle cx="231" cy="66" r="34.5" stroke="#010101" stroke-width="5"/>
<path d="M89.3483 349.858L101.956 362.465L84.7337 367.08L89.3483 349.858Z" fill="#101010"/>
<path d="M98.976 341.838L90.0613 357.278L81.1467 341.838L98.976 341.838Z" fill="#101010"/>
<circle cx="90.5" cy="70.5" r="12.5" fill="black"/>
</svg>
