<svg width="410" height="410" viewBox="0 0 410 410" fill="none" xmlns="http://www.w3.org/2000/svg">
<rect width="410" height="410" fill="white"/>
<rect x="108.204" y="110.317" width="193.592" height="193.592" stroke="#101010" stroke-width="5" stroke-dasharray="10 10"/>
<rect x="165.45" y="165.45" width="79.8028" height="79.8028" stroke="#101010" stroke-width="4"/>
<path d="M111.385 208.521C111.385 215.884 117.354 221.854 124.718 221.854C132.082 221.854 138.051 215.884 138.051 208.521C138.051 201.157 132.082 195.187 124.718 195.187C117.354 195.187 111.385 201.157 111.385 208.521ZM90.915 211.021H124.718V206.021H90.915V211.021Z" fill="black"/>
<path d="M111.385 260.634C111.385 267.998 117.354 273.967 124.718 273.967C132.082 273.967 138.051 267.998 138.051 260.634C138.051 253.27 132.082 247.3 124.718 247.3C117.354 247.3 111.385 253.27 111.385 260.634ZM90.915 263.134H124.718V258.134H90.915V263.134Z" fill="black"/>
<path d="M111.385 154.296C111.385 161.66 117.354 167.629 124.718 167.629C132.082 167.629 138.051 161.66 138.051 154.296C138.051 146.932 132.082 140.963 124.718 140.963C117.354 140.963 111.385 146.932 111.385 154.296ZM90.915 156.796H124.718V151.796H90.915V156.796Z" fill="black"/>
<path d="M159.226 114.906C151.862 114.906 145.892 120.876 145.892 128.239C145.892 135.603 151.862 141.573 159.226 141.573C166.589 141.573 172.559 135.603 172.559 128.239C172.559 120.876 166.589 114.906 159.226 114.906ZM156.726 94.4365L156.726 128.239L161.726 128.239L161.726 94.4365L156.726 94.4365Z" fill="black"/>
<path d="M201.479 114.906C194.116 114.906 188.146 120.876 188.146 128.239C188.146 135.603 194.116 141.573 201.479 141.573C208.843 141.573 214.813 135.603 214.813 128.239C214.813 120.876 208.843 114.906 201.479 114.906ZM198.979 94.4365L198.979 128.239L203.979 128.239L203.979 94.4365L198.979 94.4365Z" fill="black"/>
<path d="M247.253 114.906C239.889 114.906 233.92 120.876 233.92 128.239C233.92 135.603 239.889 141.573 247.253 141.573C254.617 141.573 260.586 135.603 260.586 128.239C260.586 120.876 254.617 114.906 247.253 114.906ZM244.753 94.4365L244.753 128.239L249.753 128.239L249.753 94.4365L244.753 94.4365Z" fill="black"/>
<path d="M300.728 202.183C300.728 194.819 294.758 188.849 287.394 188.849C280.031 188.849 274.061 194.819 274.061 202.183C274.061 209.546 280.031 215.516 287.394 215.516C294.758 215.516 300.728 209.546 300.728 202.183ZM321.197 199.683L287.394 199.683L287.394 204.683L321.197 204.683L321.197 199.683Z" fill="black"/>
<path d="M300.728 150.07C300.728 142.707 294.758 136.737 287.394 136.737C280.031 136.737 274.061 142.707 274.061 150.07C274.061 157.434 280.031 163.404 287.394 163.404C294.758 163.404 300.728 157.434 300.728 150.07ZM321.197 147.57L287.394 147.57L287.394 152.57L321.197 152.57L321.197 147.57Z" fill="black"/>
<path d="M300.728 256.408C300.728 249.044 294.758 243.075 287.394 243.075C280.031 243.075 274.061 249.044 274.061 256.408C274.061 263.772 280.031 269.742 287.394 269.742C294.758 269.742 300.728 263.772 300.728 256.408ZM321.197 253.908L287.394 253.908L287.394 258.908L321.197 258.908L321.197 253.908Z" fill="black"/>
<path d="M247.253 298.615C254.617 298.615 260.586 292.646 260.586 285.282C260.586 277.918 254.617 271.949 247.253 271.949C239.889 271.949 233.92 277.918 233.92 285.282C233.92 292.646 239.889 298.615 247.253 298.615ZM249.753 319.085L249.753 285.282L244.753 285.282L244.753 319.085L249.753 319.085Z" fill="black"/>
<path d="M205 298.615C212.364 298.615 218.333 292.646 218.333 285.282C218.333 277.918 212.364 271.949 205 271.949C197.636 271.949 191.667 277.918 191.667 285.282C191.667 292.646 197.636 298.615 205 298.615ZM207.5 319.085L207.5 285.282L202.5 285.282L202.5 319.085L207.5 319.085Z" fill="black"/>
<path d="M159.226 298.615C166.589 298.615 172.559 292.646 172.559 285.282C172.559 277.918 166.589 271.949 159.226 271.949C151.862 271.949 145.892 277.918 145.892 285.282C145.892 292.646 151.862 298.615 159.226 298.615ZM161.726 319.085L161.726 285.282L156.726 285.282L156.726 319.085L161.726 319.085Z" fill="black"/>
<path d="M204.536 203.319L220.061 218.844L198.854 224.526L204.536 203.319Z" fill="#101010"/>
<path d="M216.393 193.443L205.415 212.457L194.437 193.443L216.393 193.443Z" fill="#101010"/>
<circle cx="205" cy="205" r="197.5" stroke="#010101" stroke-width="5"/>
</svg>
