<svg width="50" height="50" viewBox="0 0 200 200" fill="none" xmlns="http://www.w3.org/2000/svg">
<rect width="50" height="50" fill="white"/>
<path d="M19 95.0762C19 103.913 26.1634 111.076 35 111.076C43.8366 111.076 51 103.913 51 95.0762C51 86.2396 43.8366 79.0762 35 79.0762C26.1634 79.0762 19 86.2396 19 95.0762ZM32 165C32 166.657 33.3431 168 35 168C36.6569 168 38 166.657 38 165L32 165ZM32 95.0762L32 165L38 165L38 95.0762L32 95.0762Z" fill="#202020"/>
<path d="M181 165C181 156.163 173.837 149 165 149C156.163 149 149 156.163 149 165C149 173.837 156.163 181 165 181C173.837 181 181 173.837 181 165ZM168 95.0758C168 93.4189 166.657 92.0758 165 92.0758C163.343 92.0758 162 93.4189 162 95.0758L168 95.0758ZM168 165L168 95.0758L162 95.0758L162 165L168 165Z" fill="#202020"/>
<path d="M37.6721 33.6361C36.9188 32.1604 35.1119 31.5747 33.6361 32.3279C32.1604 33.0812 31.5747 34.8881 32.3279 36.3639L37.6721 33.6361ZM69.0066 136.819C73.0239 144.69 82.6609 147.814 90.5315 143.796C98.4021 139.779 101.526 130.142 97.5085 122.272C93.4913 114.401 83.8542 111.277 75.9836 115.294C68.1131 119.312 64.9893 128.949 69.0066 136.819ZM32.3279 36.3639L80.5855 130.909L85.9296 128.182L37.6721 33.6361L32.3279 36.3639Z" fill="#202020"/>
<path d="M149 35C149 43.8366 156.163 51 165 51C173.837 51 181 43.8366 181 35C181 26.1634 173.837 19 165 19C156.163 19 149 26.1634 149 35ZM97.3167 163.658C96.5758 165.14 97.1764 166.942 98.6584 167.683C100.14 168.424 101.942 167.824 102.683 166.342L97.3167 163.658ZM162.317 33.6584L97.3167 163.658L102.683 166.342L167.683 36.3416L162.317 33.6584Z" fill="#202020"/>
</svg>
